<svg xmlns="http://www.w3.org/2000/svg" viewBox="0 0 256 256" fill="none">
  <defs>
    <style>
      .pri{fill:#FF6B35}
      .sec{fill:#00796B}
    </style>
  </defs>
  <circle cx="128" cy="128" r="84" class="pri" opacity="0.18"/>
  <circle cx="128" cy="128" r="84" stroke="#FF6B35" stroke-width="16" fill="none"/>
  <path class="sec" d="M116 62l18-2 22 18c6 5 7 10 5 16-5 13-2 17 4 22 2 2 3 10 2 13-3 7-5 3-8 4-6 2-5 8-6 12-1 3-6 5-7 8-1 4-2 8-2 12 0 3-1 9 0 12 1 6 1 12 0 18-1 6-2 10-2 16 0 3-3 5-6 5l-20 2-6-10 2-10-2-70c-5-6-9-7-10-16v-18l10-14 8-6 2-12z"/>
  <path class="sec" d="M184 56l24-4-6 24-18-20z"/>
</svg>
