<svg xmlns="http://www.w3.org/2000/svg" viewBox="0 0 820 220" fill="none">
  <g stroke="#1B1B1B" stroke-width="16" fill="none">
    <circle cx="110" cy="110" r="84"/>
  </g>
  <path fill="#1B1B1B" d="M98 44l18-2 22 18c6 5 7 10 5 16-5 13-2 17 4 22 2 2 3 10 2 13-3 7-5 3-8 4-6 2-5 8-6 12-1 3-6 5-7 8-1 4-2 8-2 12 0 3-1 9 0 12 1 6 1 12 0 18-1 6-2 10-2 16 0 3-3 5-6 5l-20 2-6-10 2-10-2-70c-5-6-9-7-10-16V76l10-14 8-6 2-12z"/>
  <path fill="#1B1B1B" d="M166 38l24-4-6 24-18-20z"/>
  <text x="220" y="118" font-family="Poppins, sans-serif" font-weight="700" font-size="44" fill="#1B1B1B">ExploreBenin</text>
  <text x="495" y="118" font-family="Poppins, sans-serif" font-weight="800" font-size="44" fill="#1B1B1B">360</text>
</svg>
